<svg width="36" height="36" viewBox="0 0 36 36" fill="none" xmlns="http://www.w3.org/2000/svg">
<path d="M23.625 31.5C23.625 31.7984 23.5065 32.0845 23.2955 32.2955C23.0845 32.5065 22.7984 32.625 22.5 32.625H13.5C13.2016 32.625 12.9155 32.5065 12.7045 32.2955C12.4935 32.0845 12.375 31.7984 12.375 31.5C12.375 31.2016 12.4935 30.9155 12.7045 30.7045C12.9155 30.4935 13.2016 30.375 13.5 30.375H22.5C22.7984 30.375 23.0845 30.4935 23.2955 30.7045C23.5065 30.9155 23.625 31.2016 23.625 31.5ZM32.625 9V24.75C32.625 25.6451 32.2694 26.5036 31.6365 27.1365C31.0036 27.7694 30.1451 28.125 29.25 28.125H6.75C5.85489 28.125 4.99645 27.7694 4.36351 27.1365C3.73058 26.5036 3.375 25.6451 3.375 24.75V9C3.375 8.10489 3.73058 7.24645 4.36351 6.61351C4.99645 5.98058 5.85489 5.625 6.75 5.625H29.25C30.1451 5.625 31.0036 5.98058 31.6365 6.61351C32.2694 7.24645 32.625 8.10489 32.625 9ZM23.0625 16.875C23.0624 16.6942 23.0188 16.5161 22.9354 16.3558C22.8519 16.1955 22.731 16.0576 22.583 15.9539L16.958 12.0164C16.7894 11.8983 16.5917 11.8287 16.3863 11.8152C16.181 11.8017 15.9758 11.8448 15.7933 11.9398C15.6107 12.0348 15.4577 12.178 15.3509 12.3539C15.2441 12.5299 15.1876 12.7317 15.1875 12.9375V20.8125C15.1876 21.0183 15.2441 21.2201 15.3509 21.3961C15.4577 21.572 15.6107 21.7152 15.7933 21.8102C15.9758 21.9052 16.181 21.9483 16.3863 21.9348C16.5917 21.9213 16.7894 21.8517 16.958 21.7336L22.583 17.7961C22.731 17.6924 22.8519 17.5545 22.9354 17.3942C23.0188 17.2339 23.0624 17.0558 23.0625 16.875Z" fill="url(#paint0_linear_3851_5566)"/>
<defs>
<linearGradient id="paint0_linear_3851_5566" x1="18" y1="5.625" x2="18" y2="32.625" gradientUnits="userSpaceOnUse">
<stop stop-color="#FAE1A6"/>
<stop offset="0.7" stop-color="#FF886A"/>
</linearGradient>
</defs>
</svg>
